<svg xmlns="http://www.w3.org/2000/svg" width="152" height="42.485" viewBox="0 0 152 42.485">
  <defs>
    <style>
      .cls-1, .cls-2 {
        fill: #fff;
      }

      .cls-2 {
        font-size: 17px;
        font-family: Helvetica;
      }
    </style>
  </defs>
  <g id="Group_17871" data-name="Group 17871" transform="translate(-260.654 -412.608)">
    <g id="Group_17870" data-name="Group 17870" transform="translate(260.654 412.608)">
      <path id="Path_16179" data-name="Path 16179" class="cls-1" d="M320.546,515.8l-14.019,9.053a7.025,7.025,0,0,1-2.1.765,7.606,7.606,0,0,1-1.5.149c-.078,0-.156,0-.232,0-.154,0-.308-.013-.459-.027-.062,0-.123-.011-.185-.02l-.111-.013c-.054-.007-.107-.013-.161-.022s-.109-.016-.165-.027-.1-.018-.158-.029a.094.094,0,0,1-.024,0c-.109-.02-.219-.045-.326-.071-.02,0-.042-.009-.062-.016-.089-.022-.178-.045-.268-.071-.036-.009-.069-.02-.1-.029l-.011,0c-.1-.031-.2-.062-.3-.1-.116-.04-.232-.082-.348-.129-.143-.058-.281-.118-.421-.183s-.292-.143-.435-.221-.283-.158-.421-.245c-.069-.042-.138-.087-.205-.134s-.136-.091-.2-.138-.132-.1-.2-.145-.129-.1-.194-.152l-.169-.138a.4.4,0,0,0-.033-.029c-.007,0-.011-.011-.018-.016-.051-.047-.1-.091-.154-.138-.033-.029-.067-.06-.1-.091l-.134-.127c-.1-.1-.2-.2-.294-.305-.111-.12-.219-.243-.319-.37-.058-.067-.111-.136-.165-.205L287.173,510.3c-.065-.051-.127-.1-.19-.154l-.087-.076-.118-.109-.013-.013c-.045-.042-.087-.083-.127-.125s-.087-.089-.125-.134c0-.007-.011-.011-.016-.018l-.033-.038c-.042-.049-.083-.1-.12-.145,0,0,0,0,0,0-.045-.056-.085-.112-.125-.167a1.959,1.959,0,0,1-.116-.174c-.033-.051-.065-.1-.094-.156a.167.167,0,0,1-.016-.027c-.029-.056-.058-.112-.085-.167s-.049-.1-.069-.156-.042-.1-.06-.156c-.011-.034-.022-.067-.033-.1a.092.092,0,0,1-.007-.018.067.067,0,0,1,0-.02h0a2.138,2.138,0,0,1-.065-.254l.794.8,10.019,10.054a8.788,8.788,0,0,0,6.063,2.312,7.806,7.806,0,0,0,2.923-.54Z" transform="translate(-279.366 -483.283)"/>
      <path id="Path_16180" data-name="Path 16180" class="cls-1" d="M303.691,429.068a3.28,3.28,0,0,1-1.111,1.407c-.116.094-.239.181-.363.265-.178.123-.361.236-.546.35-.127.078-.256.156-.384.232l-.261.161q-1.037.649-2.076,1.3-1.278.8-2.553,1.594s0,0,0,0l-1.746,1.088q-1.047.656-2.094,1.307-1.341.84-2.685,1.677l-1,.622c-.591.37-1.18.754-1.773,1.126l-.022.013-.1.065c-.268.167-.54.33-.812.488a7.3,7.3,0,0,1-6.143.277,6.954,6.954,0,0,1-.818-.372h0a7.174,7.174,0,0,1-.8-.488c-2.567-1.826-5.057-3.764-7.584-5.644q-1.886-1.4-3.773-2.807l-.384-.283q-1.1-.819-2.2-1.634a0,0,0,0,1,0,0h0c-.071-.051-.14-.1-.212-.158-.306-.227-.622-.45-.923-.691a4.529,4.529,0,0,1-1.378-1.574A3.04,3.04,0,0,1,263.2,423.5c.76-.517,1.568-.979,2.348-1.467q5.077-3.164,10.15-6.333c1.126-.7,2.245-1.418,3.378-2.109a7.519,7.519,0,0,1,6.982-.241,16.789,16.789,0,0,1,2.7,1.851l4.408,3.282.589.437q.95.709,1.9,1.416c.635.473,1.269.943,1.9,1.418q2.084,1.549,4.168,3.1l.54.4C303.434,426.181,304.27,427.554,303.691,429.068Z" transform="translate(-261.654 -412.607)"/>
      <path id="Path_16181" data-name="Path 16181" class="cls-1" d="M405.473,462.372a4.672,4.672,0,0,0-2.058-2.187c-1.2-.714-2.422-1.389-3.632-2.083l-.381-.219q1.284.967,2.571,1.924a3.363,3.363,0,0,1,1.512,3.666,3.9,3.9,0,0,1-2.08,2.7c-.127.082-12.01,7.519-12.951,8.105.7-.354,13.611-7.022,13.745-7.1q.525-.3,1.046-.6c.02-.013.04-.025.06-.036C404.6,465.743,406.135,464.066,405.473,462.372Z" transform="translate(-359.235 -446.67)"/>
      <g id="Group_17869" data-name="Group 17869" transform="translate(6.297 20.841)">
        <path id="Path_16182" data-name="Path 16182" class="cls-1" d="M285.663,504.083a2.147,2.147,0,0,0,.065.254h0l.727.542Z" transform="translate(-285.663 -504.083)"/>
      </g>
      <path id="Path_16183" data-name="Path 16183" class="cls-1" d="M336.52,507.306a2.692,2.692,0,0,1-.04.464v.007a2.687,2.687,0,0,1-.065.29c-.009.031-.018.06-.029.094,0,0,0,.007,0,.009l-.02.058a1.2,1.2,0,0,1-.047.125v0a.671.671,0,0,1-.04.091c-.016.038-.031.074-.049.109-.027.051-.054.1-.085.154a2.4,2.4,0,0,1-.138.221c-.036.054-.074.1-.112.154l0,0,0,0a3.564,3.564,0,0,1-.631.624c-.033.027-.067.053-.1.078-.08.06-.165.116-.252.172s-.161.1-.245.145l-.007,0c-.085.047-.172.094-.263.136a.017.017,0,0,1-.011,0c-.089.045-.183.085-.279.125l-.8.261,0,0h0l-16.7,5.427a7.288,7.288,0,0,1-2.769.513q-.3,0-.6-.02c-.1-.007-.2-.016-.3-.027-.125-.013-.252-.029-.377-.047-.25-.036-.5-.08-.745-.138-.125-.029-.247-.058-.368-.092s-.257-.074-.386-.114c-.158-.051-.314-.107-.471-.167s-.308-.123-.457-.192c-.12-.053-.239-.112-.355-.172-.058-.029-.116-.06-.172-.091q-.171-.094-.334-.194a6.426,6.426,0,0,1-1.184-.928l-7.889-7.92q3.368,2.519,6.743,5.017a8.178,8.178,0,0,0,3.86,1.547,8.3,8.3,0,0,0,1.356.062,9.014,9.014,0,0,0,1.075-.1c4.016-.566,20.608-9.345,20.869-9.495L335.3,504.7a4.851,4.851,0,0,1,.566.673c.027.04.054.078.078.118a.046.046,0,0,1,.009.013c.033.049.062.1.091.149.045.074.082.145.118.216.02.04.04.08.058.12.027.056.049.109.071.165s.042.111.062.167.036.109.051.165a3.261,3.261,0,0,1,.094.453.973.973,0,0,1,.013.116l.007.1C336.518,507.206,336.52,507.257,336.52,507.306Z" transform="translate(-290.648 -480.88)"/>
    </g>
    <text id="CXOPicks_" data-name="CXOPicks " class="cls-2" transform="translate(319.655 438.324)"><tspan x="0" y="0">CXOPICKS </tspan></text>
  </g>
</svg>
