<svg xmlns="http://www.w3.org/2000/svg" width="27.662" height="37.763" viewBox="0 0 27.662 37.763">
    <g>
        <path d="M507.819 233h2.045c.322.049.644.1.966.146a13.786 13.786 0 0 1 11.826 13.084 13.541 13.541 0 0 1-7.013 12.669.5.5 0 0 0-.283.56c.233 2.48.455 4.96.679 7.441l.349 3.864c-.167-.107-.286-.18-.4-.257-2.245-1.5-4.494-2.989-6.73-4.5a.61.61 0 0 0-.815-.012c-2.244 1.522-4.5 3.019-6.761 4.523-.111.074-.226.139-.388.239l.351-3.873c.224-2.48.444-4.961.679-7.441a.5.5 0 0 0-.3-.55 13.648 13.648 0 0 1-6.578-8.59c-.21-.793-.3-1.617-.446-2.427v-2.046c.047-.307.1-.613.141-.92a13.8 13.8 0 0 1 10.521-11.53c.71-.169 1.438-.256 2.157-.38zm12.347 13.874a11.325 11.325 0 1 0-11.347 11.311 11.329 11.329 0 0 0 11.347-11.311z" transform="translate(-495 -233) translate(0 0)"/>
        <path d="M593.516 356.563l6.634-6.641 1.747 1.744-8.314 8.321-4.568-4.573 1.675-1.683z" transform="translate(-495 -233) translate(-86.599 -107.701)"/>
    </g>
</svg>
