<svg xmlns="http://www.w3.org/2000/svg" width="18" height="19.712" viewBox="0 0 18 19.712">
    <path fill="#fff" d="M1414.17 3140.274c-1.442 0-2-.846-2-6.087 0-4.11-1.863-6.692-5.077-7.075v-1.31a.857.857 0 1 0-1.714 0v1.285c-3.428.278-5.414 2.887-5.414 7.1 0 5.241-.626 6.087-2.068 6.087a.824.824 0 0 0-.869.8.8.8 0 0 0 .846.8h5.573a3.5 3.5 0 0 0 .78 2 2.333 2.333 0 0 0 1.756.769 2.4 2.4 0 0 0 1.762-.773 3.559 3.559 0 0 0 .838-2h5.586a.807.807 0 1 0 0-1.61zm-7.672 2.443a.642.642 0 0 1-.515.222.6.6 0 0 1-.489-.223 1.345 1.345 0 0 1-.315-.832h.72a.861.861 0 0 1 .245 0h.7a1.354 1.354 0 0 1-.344.834zm-.354-2.548a.861.861 0 0 1-.245 0h-5.065c.8-1.5.8-3.833.8-6.017 0-3.489 1.515-5.34 4.265-5.34h.245c2.75 0 4.265 1.852 4.265 5.34 0 2.184 0 4.517.8 6.017zm3.058-7.6a.751.751 0 0 1-.7.794h-.045a.75.75 0 0 1-.748-.706 1.566 1.566 0 0 0-.9-1.348.755.755 0 0 1-.4-.98.746.746 0 0 1 .968-.409 3.1 3.1 0 0 1 1.823 2.646z" opacity="0.2" transform="translate(-1397.028 -3124.943)"/>
</svg>
