<svg xmlns="http://www.w3.org/2000/svg" width="27.845" height="36.035" viewBox="0 0 27.845 36.035">
    <path d="M766.845 1574.638a1.638 1.638 0 0 0-1.638-1.638h-24.57a1.638 1.638 0 0 0-1.638 1.638v32.762a1.638 1.638 0 0 0 1.638 1.638h24.57a1.638 1.638 0 0 0 1.638-1.638zm-3.276 31.121h-21.293v-29.484h21.293zm-17.416-10.852a1.433 1.433 0 0 1 1.433-1.433h4.84a1.433 1.433 0 1 1 0 2.866h-4.84a1.433 1.433 0 0 1-1.433-1.432zm.227-6.552a1.433 1.433 0 0 1 1.433-1.433h9.748a1.433 1.433 0 1 1 0 2.866h-9.748a1.433 1.433 0 0 1-1.433-1.432zm0-6.142a1.433 1.433 0 0 1 1.433-1.433h9.748a1.433 1.433 0 1 1 0 2.866h-9.748a1.433 1.433 0 0 1-1.433-1.432zM758.52 1594a1.433 1.433 0 0 1-2.027 2.027 1.428 1.428 0 0 1 0-2.027 1.486 1.486 0 0 1 2.027 0z" transform="translate(-739 -1573)"/>
</svg>
