<svg xmlns="http://www.w3.org/2000/svg" width="28.286" height="36.001" viewBox="0 0 28.286 36.001">
    <path d="M7.714 26.357v1.286a.652.652 0 0 1-.643.643H5.785a.651.651 0 0 1-.642-.643v-1.286a.652.652 0 0 1 .643-.643h1.286a.652.652 0 0 1 .643.643zm0-5.143V22.5a.652.652 0 0 1-.643.643H5.785a.651.651 0 0 1-.642-.643v-1.286a.652.652 0 0 1 .643-.643h1.286a.652.652 0 0 1 .643.643zm5.143 0V22.5a.652.652 0 0 1-.643.643h-1.286a.651.651 0 0 1-.642-.643v-1.286a.652.652 0 0 1 .643-.643h1.286a.652.652 0 0 1 .643.643zm-5.143-5.143v1.286a.652.652 0 0 1-.643.643H5.785a.651.651 0 0 1-.642-.643v-1.286a.651.651 0 0 1 .643-.642h1.286a.651.651 0 0 1 .642.642zm15.429 10.286v1.286a.652.652 0 0 1-.643.643h-1.286a.652.652 0 0 1-.643-.643v-1.286a.652.652 0 0 1 .643-.643H22.5a.652.652 0 0 1 .643.643zM18 21.214V22.5a.652.652 0 0 1-.643.643h-1.286a.651.651 0 0 1-.642-.643v-1.286a.652.652 0 0 1 .643-.643h1.286a.652.652 0 0 1 .643.643zm-5.143-5.143v1.286a.652.652 0 0 1-.643.643h-1.286a.651.651 0 0 1-.642-.643v-1.286a.651.651 0 0 1 .643-.642h1.286a.651.651 0 0 1 .642.642zm-5.143-5.142v1.286a.651.651 0 0 1-.643.642H5.785a.651.651 0 0 1-.642-.643v-1.286a.651.651 0 0 1 .643-.642h1.286a.651.651 0 0 1 .642.643zm15.429 10.286V22.5a.652.652 0 0 1-.643.643h-1.286a.652.652 0 0 1-.643-.643v-1.285a.652.652 0 0 1 .643-.643H22.5a.652.652 0 0 1 .643.643zM18 16.071v1.286a.652.652 0 0 1-.643.643h-1.286a.651.651 0 0 1-.642-.643v-1.286a.651.651 0 0 1 .642-.642h1.286a.652.652 0 0 1 .643.642zm-5.143-5.142v1.286a.651.651 0 0 1-.643.642h-1.286a.651.651 0 0 1-.642-.643v-1.286a.651.651 0 0 1 .643-.642h1.286a.651.651 0 0 1 .642.643zM7.714 5.786v1.286a.651.651 0 0 1-.643.642H5.785a.651.651 0 0 1-.642-.643V5.785a.651.651 0 0 1 .643-.642h1.286a.651.651 0 0 1 .642.643zm15.429 10.286v1.286A.651.651 0 0 1 22.5 18h-1.286a.652.652 0 0 1-.643-.643v-1.286a.652.652 0 0 1 .643-.643H22.5a.652.652 0 0 1 .643.643zM18 10.929v1.286a.651.651 0 0 1-.643.642h-1.286a.651.651 0 0 1-.642-.643v-1.286a.651.651 0 0 1 .642-.642h1.286a.652.652 0 0 1 .643.643zm-5.143-5.143v1.286a.651.651 0 0 1-.643.642h-1.286a.651.651 0 0 1-.642-.643V5.785a.651.651 0 0 1 .643-.642h1.286a.651.651 0 0 1 .642.643zm10.286 5.143v1.286a.651.651 0 0 1-.643.642h-1.286a.652.652 0 0 1-.643-.643v-1.286a.652.652 0 0 1 .643-.643H22.5a.652.652 0 0 1 .643.643zM18 5.786v1.286a.651.651 0 0 1-.643.642h-1.286a.651.651 0 0 1-.642-.643V5.785a.651.651 0 0 1 .642-.642h1.286a.652.652 0 0 1 .643.643zm5.143 0v1.286a.651.651 0 0 1-.643.642h-1.286a.652.652 0 0 1-.643-.643V5.785a.652.652 0 0 1 .643-.643H22.5a.652.652 0 0 1 .643.643zM18 33.429h7.714V2.571H2.571v30.857h7.714v-4.5a.652.652 0 0 1 .643-.643h6.429a.652.652 0 0 1 .643.643v4.5zM28.286 1.286v33.429A1.3 1.3 0 0 1 27 36H1.286a1.236 1.236 0 0 1-.9-.382 1.236 1.236 0 0 1-.382-.9V1.286a1.236 1.236 0 0 1 .382-.9 1.236 1.236 0 0 1 .9-.386H27a1.236 1.236 0 0 1 .9.382 1.236 1.236 0 0 1 .386.904z"/>
</svg>
